<svg xmlns="http://www.w3.org/2000/svg" width="1246" height="319.225" viewBox="0 0 1246 319.225">
  <g id="Group_2170" data-name="Group 2170" transform="translate(-47.32 -1551.5)">
    <path id="Path_3242" data-name="Path 3242" d="M68.94,2.16A141.843,141.843,0,0,1,45.09.27,61.8,61.8,0,0,1,25.65-6.21,33.637,33.637,0,0,1,12.51-18.99Q7.74-27.18,7.74-39.6v-.99a5.581,5.581,0,0,1,.18-1.35H45.54a5.581,5.581,0,0,0-.18,1.35v1.17q0,5.4,2.52,8.28a12.659,12.659,0,0,0,7.11,3.87,49.283,49.283,0,0,0,10.35.99q2.16,0,4.59-.09a29.378,29.378,0,0,0,4.68-.54,17.634,17.634,0,0,0,4.14-1.35,7.478,7.478,0,0,0,2.97-2.43,6.551,6.551,0,0,0,1.08-3.87,6.131,6.131,0,0,0-3.06-5.4,30.181,30.181,0,0,0-8.28-3.42q-5.22-1.44-11.7-2.7t-13.5-2.97a91.092,91.092,0,0,1-13.5-4.41,47.446,47.446,0,0,1-11.7-6.93,30.283,30.283,0,0,1-8.28-10.62A35.376,35.376,0,0,1,9.72-86.4q0-10.8,4.5-18.36A34.925,34.925,0,0,1,26.55-117a58.6,58.6,0,0,1,17.82-6.84A99,99,0,0,1,65.34-126a93.634,93.634,0,0,1,20.97,2.25,56.908,56.908,0,0,1,17.37,6.93,35.153,35.153,0,0,1,11.88,11.88,33.851,33.851,0,0,1,4.5,17.1v2.16H82.8v-.72a12.292,12.292,0,0,0-1.62-6.12,11.871,11.871,0,0,0-5.13-4.68A20.386,20.386,0,0,0,66.78-99a32.8,32.8,0,0,0-9.09,1.08,12.166,12.166,0,0,0-5.49,2.97,5.8,5.8,0,0,0-1.8,4.05,6.564,6.564,0,0,0,3.06,5.58,26.746,26.746,0,0,0,8.28,3.6q5.22,1.44,11.7,2.7t13.5,2.79a90.149,90.149,0,0,1,13.5,4.05,46.381,46.381,0,0,1,11.7,6.57,29.7,29.7,0,0,1,8.28,9.99,31.57,31.57,0,0,1,3.06,14.58q0,15.3-7.11,24.84A40.571,40.571,0,0,1,96.93-2.25,82.794,82.794,0,0,1,68.94,2.16Zm123.12,0q-17.1,0-29.61-5.31a40.526,40.526,0,0,1-19.26-16.29q-6.75-10.98-6.75-28.08,0-16.74,6.66-27.72a41.471,41.471,0,0,1,18.63-16.47Q173.7-97.2,189.9-97.2q17.1,0,29.07,5.31A38.419,38.419,0,0,1,237.24-75.6q6.3,10.98,6.3,28.08v6.12H172.26a29.752,29.752,0,0,0,1.89,11.16,13.98,13.98,0,0,0,6.12,7.11q4.23,2.43,11.07,2.43a26.826,26.826,0,0,0,8.19-1.08,14.537,14.537,0,0,0,5.4-2.97,10.853,10.853,0,0,0,2.97-4.41,15.938,15.938,0,0,0,.9-5.4h34.74a35.3,35.3,0,0,1-3.24,15.3,30.532,30.532,0,0,1-9.72,11.61A46.969,46.969,0,0,1,214.47-.36,89.031,89.031,0,0,1,192.06,2.16ZM172.44-58.32h34.92a19.67,19.67,0,0,0-1.08-6.75,13.575,13.575,0,0,0-3.15-5.04,13.575,13.575,0,0,0-5.04-3.15,19.67,19.67,0,0,0-6.75-1.08,22.04,22.04,0,0,0-9.9,1.98,14.725,14.725,0,0,0-6.12,5.49A22.129,22.129,0,0,0,172.44-58.32ZM260.82,0V-95.04h29.34l2.34,14.4h1.26a30.122,30.122,0,0,1,6.03-9.18,23.964,23.964,0,0,1,8.55-5.67,28.057,28.057,0,0,1,10.26-1.89,26.768,26.768,0,0,1,6.48.72,17.571,17.571,0,0,1,4.14,1.44v30.06H317.7a27.84,27.84,0,0,0-9.81,1.53,15.02,15.02,0,0,0-6.48,4.5,19.355,19.355,0,0,0-3.6,7.2,36.187,36.187,0,0,0-1.17,9.63V0ZM365.94,0l-36-95.04h38.52l9.18,30.78q.9,2.52,2.25,7.56t3.06,10.62q1.71,5.58,2.97,10.26h1.26q1.26-4.32,2.88-9.81t3.06-10.53q1.44-5.04,2.34-8.1l9.18-30.78h35.28L403.56,0Zm84.78-106.2v-24.3h35.82v24.3Zm0,106.2V-95.04h35.82V0ZM557.28,2.16q-16.2,0-28.17-5.49a41.315,41.315,0,0,1-18.63-16.56q-6.66-11.07-6.66-27.63,0-16.74,6.66-27.81a41.315,41.315,0,0,1,18.63-16.56q11.97-5.49,28.17-5.49a85.161,85.161,0,0,1,20.34,2.34,51.607,51.607,0,0,1,16.74,7.2,33.961,33.961,0,0,1,11.25,12.6q4.05,7.74,4.05,18.54H574.92a18.237,18.237,0,0,0-2.07-9.18,12.432,12.432,0,0,0-6.03-5.31,24,24,0,0,0-9.54-1.71q-6.3,0-10.17,2.43a14.085,14.085,0,0,0-5.67,7.02,29.787,29.787,0,0,0-1.8,10.89V-42.3a27.828,27.828,0,0,0,1.89,10.8,14.317,14.317,0,0,0,5.94,6.93q4.05,2.43,10.53,2.43a25.724,25.724,0,0,0,9.99-1.71,12.725,12.725,0,0,0,6.21-5.4,18.513,18.513,0,0,0,2.16-9.45h33.3q0,10.8-4.05,18.63A33.771,33.771,0,0,1,594.36-7.38a51.607,51.607,0,0,1-16.74,7.2A85.162,85.162,0,0,1,557.28,2.16Zm122.22,0q-17.1,0-29.61-5.31a40.526,40.526,0,0,1-19.26-16.29q-6.75-10.98-6.75-28.08,0-16.74,6.66-27.72a41.471,41.471,0,0,1,18.63-16.47q11.97-5.49,28.17-5.49,17.1,0,29.07,5.31A38.42,38.42,0,0,1,724.68-75.6q6.3,10.98,6.3,28.08v6.12H659.7a29.751,29.751,0,0,0,1.89,11.16,13.98,13.98,0,0,0,6.12,7.11q4.23,2.43,11.07,2.43a26.826,26.826,0,0,0,8.19-1.08,14.536,14.536,0,0,0,5.4-2.97,10.853,10.853,0,0,0,2.97-4.41,15.938,15.938,0,0,0,.9-5.4h34.74a35.3,35.3,0,0,1-3.24,15.3,30.532,30.532,0,0,1-9.72,11.61A46.969,46.969,0,0,1,701.91-.36,89.031,89.031,0,0,1,679.5,2.16ZM659.88-58.32H694.8a19.669,19.669,0,0,0-1.08-6.75,13.575,13.575,0,0,0-3.15-5.04,13.575,13.575,0,0,0-5.04-3.15,19.671,19.671,0,0,0-6.75-1.08,22.04,22.04,0,0,0-9.9,1.98,14.726,14.726,0,0,0-6.12,5.49A22.13,22.13,0,0,0,659.88-58.32ZM792.18,2.16A87.445,87.445,0,0,1,774.99.45a58.865,58.865,0,0,1-15.66-5.4A33,33,0,0,1,747.9-14.4a22.731,22.731,0,0,1-4.32-14.04v-1.17a5.581,5.581,0,0,1,.18-1.35h33.3a3.4,3.4,0,0,0-.18,1.08v.9a8.188,8.188,0,0,0,2.25,5.4,12.746,12.746,0,0,0,5.49,3.24,25.016,25.016,0,0,0,7.56,1.08,60.359,60.359,0,0,0,6.03-.36,16.688,16.688,0,0,0,6.21-1.8,5.062,5.062,0,0,0,2.7-4.86,4.9,4.9,0,0,0-3.15-4.59,34.06,34.06,0,0,0-8.28-2.52q-5.13-.99-11.25-2.07-6.66-1.08-13.41-2.79a53.154,53.154,0,0,1-12.51-4.86,26,26,0,0,1-9.27-8.37q-3.51-5.22-3.51-13.5,0-9.36,3.87-15.66a27.916,27.916,0,0,1,10.62-9.99,50.05,50.05,0,0,1,15.3-5.22,101.554,101.554,0,0,1,17.91-1.53,85.679,85.679,0,0,1,16.11,1.53,56.216,56.216,0,0,1,14.67,4.86,28.911,28.911,0,0,1,10.62,8.73,21.609,21.609,0,0,1,3.96,13.14v1.35a2.788,2.788,0,0,1-.18,1.17H805.68v-1.44a5.675,5.675,0,0,0-1.89-4.41,11.7,11.7,0,0,0-4.86-2.52,22.819,22.819,0,0,0-6.03-.81q-1.08,0-3.24.09a22.977,22.977,0,0,0-4.41.63,9.238,9.238,0,0,0-3.78,1.8,4.4,4.4,0,0,0-1.53,3.6,4.051,4.051,0,0,0,2.07,3.51,17.461,17.461,0,0,0,5.58,2.16q3.51.81,7.83,1.71,6.84,1.26,14.76,2.43a68.344,68.344,0,0,1,15.03,3.96,27.177,27.177,0,0,1,11.61,8.46q4.5,5.67,4.5,15.93,0,9.72-3.96,16.29a28.422,28.422,0,0,1-10.8,10.35A51.329,51.329,0,0,1,810.81.54,104,104,0,0,1,792.18,2.16Z" transform="translate(452 1868.564)" fill="#009aff" opacity="0.1"/>
    <path id="Path_3243" data-name="Path 3243" d="M13.32,0V-123.84H68.76L80.1-80.28q.72,2.34,2.07,7.74t2.88,11.7q1.53,6.3,2.79,11.7h1.44q.9-3.96,2.25-9.45t2.79-11.25q1.44-5.76,2.52-10.44l11.34-43.56h53.46V0H123.66V-44.64q0-7.2.09-14.85t.18-14.49q.09-6.84.09-11.34h-1.44q-.54,3.6-1.53,8.46t-2.07,9.63q-1.08,4.77-2.16,8.37L100.8,0H71.1L54.9-58.86q-.9-3.6-2.07-8.37t-2.07-9.63q-.9-4.86-1.62-8.28H47.7q.18,4.5.36,11.34t.27,14.4q.09,7.56.09,14.76V0ZM213.84,2.16A62.744,62.744,0,0,1,200.34.81a29.307,29.307,0,0,1-10.62-4.5,20.75,20.75,0,0,1-6.93-8.28,29.072,29.072,0,0,1-2.43-12.51q0-10.62,4.41-17.28a28.122,28.122,0,0,1,12.87-10.26,73.664,73.664,0,0,1,20.61-4.95,254.459,254.459,0,0,1,27.81-1.35V-63a10.119,10.119,0,0,0-1.89-6.39,11.841,11.841,0,0,0-4.95-3.69,18.314,18.314,0,0,0-7.02-1.26,29.006,29.006,0,0,0-6.3.72,11.848,11.848,0,0,0-5.31,2.52,6.323,6.323,0,0,0-2.07,5.04v.72H183.24a5.289,5.289,0,0,1-.18-1.26v-1.26a22.817,22.817,0,0,1,5.67-15.39q5.67-6.57,16.74-10.26t27.27-3.69a97.076,97.076,0,0,1,24.3,2.88q11.16,2.88,18,9.63t6.84,18.45v37.08a8.45,8.45,0,0,0,1.44,4.95,4.914,4.914,0,0,0,4.32,2.07h6.48v20.7A27.855,27.855,0,0,1,287.01.99,50.909,50.909,0,0,1,275.4,2.16,49.187,49.187,0,0,1,262.8.72a23.191,23.191,0,0,1-8.73-4.14,14.052,14.052,0,0,1-4.59-6.3h-1.26a45.192,45.192,0,0,1-8.73,6.12A46.136,46.136,0,0,1,228.24.63,61.28,61.28,0,0,1,213.84,2.16Zm14.58-22.32a21.783,21.783,0,0,0,6.57-.99,21.519,21.519,0,0,0,5.67-2.7,12.994,12.994,0,0,0,3.96-4.14,10.227,10.227,0,0,0,1.44-5.31v-8.1a74.109,74.109,0,0,0-17.19,1.62q-6.57,1.62-9.63,4.32a8.18,8.18,0,0,0-3.06,6.3,8,8,0,0,0,1.8,5.58,9.124,9.124,0,0,0,4.59,2.7A23.323,23.323,0,0,0,228.42-20.16ZM305.82,0V-95.04h29.34l2.34,14.4h1.26a37.211,37.211,0,0,1,8.82-9.27,35.87,35.87,0,0,1,11.16-5.49,44.422,44.422,0,0,1,12.6-1.8q11.34,0,18.63,4.23a26.2,26.2,0,0,1,10.89,12.15q3.6,7.92,3.6,19.26V0H368.64V-57.24a17.314,17.314,0,0,0-.81-5.49,13.568,13.568,0,0,0-2.25-4.23,9.57,9.57,0,0,0-3.69-2.79,13.1,13.1,0,0,0-5.31-.99,14.526,14.526,0,0,0-7.83,2.07,15,15,0,0,0-5.22,5.4,14.865,14.865,0,0,0-1.89,7.47V0ZM453.96,2.16A62.744,62.744,0,0,1,440.46.81a29.307,29.307,0,0,1-10.62-4.5,20.751,20.751,0,0,1-6.93-8.28,29.072,29.072,0,0,1-2.43-12.51q0-10.62,4.41-17.28a28.122,28.122,0,0,1,12.87-10.26,73.664,73.664,0,0,1,20.61-4.95,254.459,254.459,0,0,1,27.81-1.35V-63a10.119,10.119,0,0,0-1.89-6.39,11.841,11.841,0,0,0-4.95-3.69,18.314,18.314,0,0,0-7.02-1.26,29.006,29.006,0,0,0-6.3.72,11.848,11.848,0,0,0-5.31,2.52,6.323,6.323,0,0,0-2.07,5.04v.72H423.36a5.289,5.289,0,0,1-.18-1.26v-1.26a22.817,22.817,0,0,1,5.67-15.39q5.67-6.57,16.74-10.26t27.27-3.69a97.076,97.076,0,0,1,24.3,2.88q11.16,2.88,18,9.63T522-66.24v37.08a8.449,8.449,0,0,0,1.44,4.95,4.914,4.914,0,0,0,4.32,2.07h6.48v20.7A27.855,27.855,0,0,1,527.13.99a50.909,50.909,0,0,1-11.61,1.17A49.187,49.187,0,0,1,502.92.72a23.191,23.191,0,0,1-8.73-4.14,14.052,14.052,0,0,1-4.59-6.3h-1.26a45.192,45.192,0,0,1-8.73,6.12A46.137,46.137,0,0,1,468.36.63,61.28,61.28,0,0,1,453.96,2.16Zm14.58-22.32a21.783,21.783,0,0,0,6.57-.99,21.519,21.519,0,0,0,5.67-2.7,12.994,12.994,0,0,0,3.96-4.14,10.227,10.227,0,0,0,1.44-5.31v-8.1a74.109,74.109,0,0,0-17.19,1.62q-6.57,1.62-9.63,4.32a8.18,8.18,0,0,0-3.06,6.3,8,8,0,0,0,1.8,5.58,9.124,9.124,0,0,0,4.59,2.7A23.323,23.323,0,0,0,468.54-20.16ZM560.88,37.8a24.177,24.177,0,0,1-11.97-3.06,23.387,23.387,0,0,1-8.73-8.37,22.194,22.194,0,0,1-3.24-11.79,19.8,19.8,0,0,1,4.59-12.96,29.324,29.324,0,0,1,10.53-8.28,23.525,23.525,0,0,1-6.84-7.38,18.255,18.255,0,0,1-2.52-9.36,18.325,18.325,0,0,1,5.31-12.87,25.293,25.293,0,0,1,12.87-7.47,41.386,41.386,0,0,1-10.89-9.99,20.65,20.65,0,0,1-4.41-12.69q0-11.88,6.66-18.54t17.82-9.45a100.857,100.857,0,0,1,24.48-2.79q5.4,0,9.09.27a59.529,59.529,0,0,1,6.57.81q7.92-4.86,10.98-9.54t3.06-7.2h29.52q0,7.74-2.61,12.78a20.43,20.43,0,0,1-7.56,8.1,43.262,43.262,0,0,1-11.79,4.86,29.964,29.964,0,0,1,8.19,9.27,22.7,22.7,0,0,1,2.97,11.25q0,10.62-5.58,17.37a32.885,32.885,0,0,1-14.67,9.99A58.3,58.3,0,0,1,603-36H589.32q-6.12,0-8.73,1.44t-2.61,3.78a4.764,4.764,0,0,0,2.25,3.96q2.25,1.62,9.09,1.62h32.4q16.56,0,24.3,8.55t7.74,21.87a27.745,27.745,0,0,1-5.58,17.37,36.345,36.345,0,0,1-14.67,11.25A48.809,48.809,0,0,1,613.8,37.8Zm19.44-19.98H608.4a10.717,10.717,0,0,0,4.86-1.08,8.246,8.246,0,0,0,3.42-3.15,8.99,8.99,0,0,0,1.26-4.77,8,8,0,0,0-2.79-6.48A10.156,10.156,0,0,0,608.4,0H580.32a10.054,10.054,0,0,0-6.66,2.25,7.852,7.852,0,0,0-2.7,6.39,8.681,8.681,0,0,0,2.7,6.66A9.392,9.392,0,0,0,580.32,17.82Zm13.86-72.54q6.3,0,10.08-2.88t3.78-9q0-6.12-3.78-9t-10.08-2.88a15.779,15.779,0,0,0-9.54,2.88q-3.96,2.88-3.96,9a12.737,12.737,0,0,0,1.62,6.66,9.512,9.512,0,0,0,4.68,3.96A18.833,18.833,0,0,0,594.18-54.72ZM717.12,2.16q-17.1,0-29.61-5.31a40.526,40.526,0,0,1-19.26-16.29q-6.75-10.98-6.75-28.08,0-16.74,6.66-27.72a41.471,41.471,0,0,1,18.63-16.47q11.97-5.49,28.17-5.49,17.1,0,29.07,5.31A38.42,38.42,0,0,1,762.3-75.6q6.3,10.98,6.3,28.08v6.12H697.32a29.751,29.751,0,0,0,1.89,11.16,13.98,13.98,0,0,0,6.12,7.11q4.23,2.43,11.07,2.43a26.826,26.826,0,0,0,8.19-1.08,14.536,14.536,0,0,0,5.4-2.97,10.853,10.853,0,0,0,2.97-4.41,15.938,15.938,0,0,0,.9-5.4H768.6a35.3,35.3,0,0,1-3.24,15.3,30.532,30.532,0,0,1-9.72,11.61A46.969,46.969,0,0,1,739.53-.36,89.031,89.031,0,0,1,717.12,2.16ZM697.5-58.32h34.92a19.669,19.669,0,0,0-1.08-6.75,13.575,13.575,0,0,0-3.15-5.04,13.575,13.575,0,0,0-5.04-3.15,19.671,19.671,0,0,0-6.75-1.08,22.04,22.04,0,0,0-9.9,1.98,14.726,14.726,0,0,0-6.12,5.49A22.13,22.13,0,0,0,697.5-58.32ZM821.7,2.16q-12.6,0-21.6-5.49T786.33-19.89q-4.77-11.07-4.77-27.81,0-16.56,4.77-27.54T800.1-91.71q9-5.49,21.6-5.49a41.03,41.03,0,0,1,9.81,1.17,31.718,31.718,0,0,1,8.82,3.6,22.289,22.289,0,0,1,6.75,6.21h1.26V-130.5h35.82V0H855l-2.52-13.5h-1.26a31.356,31.356,0,0,1-12.6,11.88A37.306,37.306,0,0,1,821.7,2.16ZM832.86-24.3a14.491,14.491,0,0,0,9.09-2.7,15.407,15.407,0,0,0,5.13-7.29,30.387,30.387,0,0,0,1.62-10.17V-50.4a32.954,32.954,0,0,0-.9-7.83,19.811,19.811,0,0,0-2.79-6.48,13.509,13.509,0,0,0-4.95-4.41,15.177,15.177,0,0,0-7.2-1.62,15.652,15.652,0,0,0-9,2.34,13.134,13.134,0,0,0-4.95,6.48,28.014,28.014,0,0,0-1.53,9.72v9.54a28.014,28.014,0,0,0,1.53,9.72,12.646,12.646,0,0,0,4.95,6.39A16.13,16.13,0,0,0,832.86-24.3Z" transform="translate(34 1682)" fill="#009aff" opacity="0.1"/>
  </g>
</svg>
