<?xml version="1.0" encoding="UTF-8"?>
<svg id="Layer_1" data-name="Layer 1" xmlns="http://www.w3.org/2000/svg" viewBox="0 0 1324.26 132.66">
  <defs>
    <style>
      .cls-1 {
        fill: #009aff;
        isolation: isolate;
        opacity: .1;
      }
    </style>
  </defs>
  <path id="Path_3246" data-name="Path 3246" class="cls-1" d="M0,130.5L45.18,6.66h46.26l45.18,123.84h-42.12l-5.22-17.46h-43.38l-5.22,17.46H0ZM54.18,85.32h27l-5.94-19.8c-.48-1.44-1.02-3.18-1.62-5.22-.6-2.04-1.2-4.2-1.8-6.48-.6-2.28-1.2-4.53-1.8-6.75-.6-2.22-1.14-4.17-1.62-5.85h-1.44c-.48,2.16-1.11,4.62-1.89,7.38-.78,2.76-1.59,5.61-2.43,8.55-.84,2.94-1.68,5.73-2.52,8.37l-5.94,19.8ZM151.56,130.5V6.66h39.78v123.84h-39.78ZM211.86,95.22v-28.44h45.54v28.44h-45.54ZM277.92,130.5V6.66h73.08c7.23-.15,14.36,1.69,20.61,5.31,5.91,3.51,10.74,8.59,13.95,14.67,3.48,6.72,5.21,14.21,5.04,21.78,0,8.52-1.71,15.93-5.13,22.23-3.23,6.1-8.09,11.18-14.04,14.67-6.21,3.55-13.27,5.36-20.43,5.22h-33.3v39.96h-39.78ZM317.7,61.56h19.98c4.2,0,7.35-1.08,9.45-3.24,2.1-2.16,3.15-5.34,3.15-9.54.09-2.44-.37-4.87-1.35-7.11-.87-1.83-2.33-3.32-4.14-4.23-2.22-1.04-4.66-1.53-7.11-1.44h-19.98v25.56ZM450.9,132.66c-10.8,0-20.19-1.83-28.17-5.49-7.77-3.47-14.27-9.25-18.63-16.56-4.44-7.38-6.66-16.59-6.66-27.63s2.22-20.4,6.66-27.72c4.38-7.27,10.88-13.01,18.63-16.47,7.98-3.66,17.37-5.49,28.17-5.49,10.8,0,20.22,1.83,28.26,5.49,7.78,3.44,14.32,9.19,18.72,16.47,4.44,7.32,6.66,16.56,6.66,27.72,0,11.04-2.22,20.25-6.66,27.63-4.38,7.32-10.92,13.11-18.72,16.56-8.04,3.66-17.46,5.49-28.26,5.49ZM450.9,108.36c3.58.15,7.13-.69,10.26-2.43,2.63-1.61,4.66-4.05,5.76-6.93,1.28-3.45,1.89-7.12,1.8-10.8v-10.26c.08-3.71-.53-7.4-1.8-10.89-1.08-2.92-3.11-5.39-5.76-7.02-3.13-1.74-6.68-2.58-10.26-2.43-4.2,0-7.59.81-10.17,2.43-2.61,1.65-4.6,4.12-5.67,7.02-1.27,3.49-1.88,7.18-1.8,10.89v10.26c-.09,3.68.52,7.35,1.8,10.8,1.09,2.86,3.08,5.3,5.67,6.93,2.58,1.62,5.97,2.43,10.17,2.43ZM545.76,130.5l-34.74-95.04h38.7l7.38,28.98c.48,1.56,1.11,3.93,1.89,7.11s1.62,6.57,2.52,10.17c.9,3.6,1.71,6.9,2.43,9.9h1.26c.84-3,1.65-6,2.43-9,.78-3,1.59-6,2.43-9,.84-3,1.62-6,2.34-9l7.74-29.16h35.64l7.56,29.34c.48,1.68,1.11,4.11,1.89,7.29s1.62,6.51,2.52,9.99c.9,3.48,1.71,6.66,2.43,9.54h1.26c.6-2.4,1.32-5.22,2.16-8.46s1.68-6.51,2.52-9.81c.84-3.3,1.56-6.15,2.16-8.55l7.74-29.34h34.92l-34.92,95.04h-34.92l-9-32.04c-.6-2.04-1.26-4.35-1.98-6.93s-1.41-5.1-2.07-7.56-1.23-4.59-1.71-6.39h-.72c-.36,1.68-.87,3.72-1.53,6.12s-1.35,4.86-2.07,7.38c-.72,2.52-1.44,4.92-2.16,7.2l-9.18,32.22h-34.92ZM743.04,132.66c-11.4,0-21.27-1.77-29.61-5.31-7.99-3.24-14.74-8.95-19.26-16.29-4.5-7.32-6.75-16.68-6.75-28.08s2.22-20.4,6.66-27.72c4.38-7.27,10.88-13.01,18.63-16.47,7.98-3.66,17.37-5.49,28.17-5.49,11.4,0,21.09,1.77,29.07,5.31,7.7,3.29,14.12,9.01,18.27,16.29,4.2,7.32,6.3,16.68,6.3,28.08v6.12h-71.28c-.09,3.81.55,7.6,1.89,11.16,1.16,3,3.32,5.52,6.12,7.11,2.82,1.62,6.51,2.43,11.07,2.43,2.77.07,5.53-.3,8.19-1.08,1.99-.59,3.83-1.61,5.4-2.97,1.34-1.2,2.36-2.72,2.97-4.41.61-1.73.91-3.56.9-5.4h34.74c.08,5.28-1.03,10.51-3.24,15.3-2.21,4.62-5.56,8.62-9.72,11.61-4.86,3.43-10.33,5.9-16.11,7.29-7.33,1.79-14.86,2.63-22.41,2.52ZM723.42,72.18h34.92c.04-2.3-.33-4.58-1.08-6.75-.66-1.89-1.74-3.61-3.15-5.04-1.43-1.41-3.15-2.49-5.04-3.15-2.17-.75-4.45-1.12-6.75-1.08-3.41-.11-6.8.56-9.9,1.98-2.52,1.21-4.64,3.12-6.12,5.49-1.54,2.62-2.52,5.53-2.88,8.55ZM811.8,130.5V35.46h29.34l2.34,14.4h1.26c1.43-3.4,3.47-6.52,6.03-9.18,2.41-2.49,5.32-4.42,8.55-5.67,3.27-1.27,6.75-1.91,10.26-1.89,2.18-.02,4.36.22,6.48.72,1.43.31,2.83.79,4.14,1.44v30.06h-11.52c-3.34-.08-6.66.44-9.81,1.53-2.52.9-4.76,2.45-6.48,4.5-1.69,2.12-2.92,4.57-3.6,7.2-.82,3.14-1.21,6.38-1.17,9.63v42.3h-35.82ZM941.22,132.66c-11.4,0-21.27-1.77-29.61-5.31-7.99-3.24-14.74-8.95-19.26-16.29-4.5-7.32-6.75-16.68-6.75-28.08,0-11.16,2.22-20.4,6.66-27.72,4.38-7.27,10.88-13.01,18.63-16.47,7.98-3.66,17.37-5.49,28.17-5.49,11.4,0,21.09,1.77,29.07,5.31,7.7,3.29,14.12,9.01,18.27,16.29,4.2,7.32,6.3,16.68,6.3,28.08v6.12h-71.28c-.09,3.81.55,7.6,1.89,11.16,1.16,3,3.32,5.52,6.12,7.11,2.82,1.62,6.51,2.43,11.07,2.43,2.77.07,5.53-.3,8.19-1.08,1.99-.59,3.83-1.61,5.4-2.97,1.34-1.2,2.36-2.72,2.97-4.41.61-1.73.91-3.56.9-5.4h34.74c.08,5.28-1.03,10.51-3.24,15.3-2.21,4.62-5.56,8.62-9.72,11.61-4.86,3.43-10.33,5.9-16.11,7.29-7.33,1.79-14.86,2.63-22.41,2.52ZM921.6,72.18h34.92c.04-2.3-.33-4.58-1.08-6.75-.66-1.89-1.74-3.61-3.15-5.04-1.43-1.41-3.15-2.49-5.04-3.15-2.17-.75-4.45-1.12-6.75-1.08-3.41-.11-6.8.56-9.9,1.98-2.52,1.21-4.64,3.12-6.12,5.49-1.54,2.62-2.52,5.53-2.88,8.55ZM1045.8,132.66c-8.4,0-15.6-1.83-21.6-5.49-6-3.66-10.59-9.18-13.77-16.56-3.18-7.38-4.77-16.65-4.77-27.81s1.59-20.22,4.77-27.54c3.18-7.32,7.77-12.81,13.77-16.47,6-3.66,13.2-5.49,21.6-5.49,3.31,0,6.6.39,9.81,1.17,3.1.75,6.08,1.96,8.82,3.6,2.66,1.58,4.95,3.69,6.75,6.21h1.26V0h35.82v130.5h-29.16l-2.52-13.5h-1.26c-3,5.06-7.37,9.18-12.6,11.88-5.26,2.57-11.06,3.87-16.92,3.78ZM1056.96,106.2c3.25.14,6.45-.81,9.09-2.7,2.39-1.87,4.18-4.41,5.13-7.29,1.11-3.27,1.66-6.71,1.62-10.17v-5.94c.01-2.64-.29-5.27-.9-7.83-.53-2.31-1.48-4.5-2.79-6.48-1.26-1.86-2.96-3.37-4.95-4.41-2.23-1.12-4.7-1.68-7.2-1.62-3.17-.15-6.31.67-9,2.34-2.3,1.58-4.03,3.85-4.95,6.48-1.08,3.12-1.6,6.42-1.53,9.72v9.54c-.07,3.3.45,6.6,1.53,9.72.91,2.61,2.65,4.86,4.95,6.39,2.71,1.62,5.84,2.4,9,2.25Z"/>
</svg>